<svg id="visual" viewBox="0 0 900 150" width="900" height="150" xmlns="http://www.w3.org/2000/svg" xmlns:xlink="http://www.w3.org/1999/xlink" version="1.1"><rect x="0" y="0" width="900" height="150" fill="#002740"></rect><path d="M0 37L21.5 38.5C43 40 86 43 128.8 45.8C171.7 48.7 214.3 51.3 257.2 46.7C300 42 343 30 385.8 24.5C428.7 19 471.3 20 514.2 23.5C557 27 600 33 642.8 36.5C685.7 40 728.3 41 771.2 43.3C814 45.7 857 49.3 878.5 51.2L900 53L900 0L878.5 0C857 0 814 0 771.2 0C728.3 0 685.7 0 642.8 0C600 0 557 0 514.2 0C471.3 0 428.7 0 385.8 0C343 0 300 0 257.2 0C214.3 0 171.7 0 128.8 0C86 0 43 0 21.5 0L0 0Z" fill="#EEF5FF" stroke-linecap="round" stroke-linejoin="miter"></path></svg>